 <svg  version="1.0" xmlns="http://www.w3.org/2000/svg"  width="300.000000pt" height="300.000000pt" viewBox="0 0 300.000000 300.000000"  preserveAspectRatio="xMidYMid meet">  <g transform="translate(0.000000,300.000000) scale(0.100000,-0.100000)" fill="#ffffff" stroke="none"> <path d="M1638 2003 c-17 -20 -378 -950 -378 -974 0 -42 73 -65 102 -31 17 19 378 949 378 973 0 42 -73 65 -102 32z m52 -50 c0 -14 -310 -828 -342 -899 -13 -28 -38 -32 -38 -7 0 14 308 824 341 897 14 29 39 35 39 9z"/> <path d="M788 1707 c-225 -115 -320 -169 -327 -184 -22 -48 -4 -61 330 -231 340 -174 357 -180 381 -127 23 51 6 65 -266 201 -141 71 -256 131 -256 134 0 3 111 60 246 128 135 68 254 132 265 143 10 10 19 28 19 39 0 25 -34 60 -57 60 -10 0 -161 -73 -335 -163z m342 103 c0 -15 -38 -37 -273 -156 -225 -115 -251 -136 -224 -178 10 -14 97 -65 225 -130 115 -59 223 -116 241 -127 34 -20 41 -39 15 -39 -9 0 -149 68 -310 151 -227 116 -294 155 -294 169 0 14 67 53 293 169 277 143 327 164 327 141z"/> <path d="M1840 1850 c-25 -25 -26 -54 -1 -79 11 -11 130 -75 265 -143 135 -68 246 -125 246 -128 0 -3 -115 -63 -256 -134 -272 -136 -289 -150 -266 -201 24 -53 41 -47 381 127 227 116 323 170 330 186 22 47 4 60 -328 230 -175 89 -325 162 -335 162 -9 0 -25 -9 -36 -20z m357 -181 c248 -127 294 -154 291 -171 -2 -15 -75 -57 -293 -169 -276 -141 -325 -162 -325 -139 0 15 38 37 273 156 215 110 248 135 228 172 -14 26 -42 42 -261 152 -191 96 -240 125 -240 141 0 22 48 1 327 -142z"/> </g> </svg> 